<?xml version="1.0" encoding="utf-8"?><svg xmlns="http://www.w3.org/2000/svg" xmlns:xlink="http://www.w3.org/1999/xlink"><symbol viewBox="0 0 1024 1024" class="aicon" id="dial" xmlns="http://www.w3.org/2000/svg"><path d="M993.763 493.538v35c0 13.331-6.04 26.663-18.135 37.137-140.149 121.422-280.35 242.794-420.49 364.219-11.813 10.237-25.813 15.501-42.454 15.501v-35c16.644 0 30.641-5.264 42.454-15.501 140.142-121.425 280.336-242.802 420.49-364.219 12.095-10.474 18.135-23.801 18.135-37.137z" fill="#8EC441"/><path d="M30.239 528.366v-35c0 14.708 6.701 29.313 19.037 40.02C187.725 653.45 326.325 773.382 464.837 893.403c13.002 11.262 28.74 16.468 47.853 16.996v35c-19.108-.528-34.851-5.735-47.853-16.996C326.325 808.382 187.725 688.45 49.276 568.386c-12.337-10.705-19.037-25.312-19.037-40.02z" fill="#8EC441"/><path d="M510.786 76.601c16.263 0 32.546 5.362 44.946 16.097 139.949 121.188 279.9 242.376 419.818 363.584 24.241 20.995 24.295 53.414.079 74.396C835.48 652.1 695.28 773.476 555.141 894.897c-11.814 10.238-25.813 15.502-42.451 15.502-19.109-.528-34.853-5.734-47.854-16.994C326.324 773.382 187.724 653.45 49.275 533.386c-19.581-16.987-24.96-43.81-11.895-65.252 3.919-6.437 8.669-11.829 14.465-16.85 138.109-119.55 276.179-239.132 414.262-358.717 12.296-10.64 28.478-15.966 44.679-15.966z" fill="#A6CD48"/><path d="M370.331 358.014V341.217l.146-.005v16.8c-.049-.001-.099 0-.146.002z" fill="#6A9C4F"/><path d="M370.476 341.209v16.8a21.01 21.01 0 00-2.264.18v-16.8c.741-.099 1.495-.16 2.264-.18M357.188 363.017c-.369.271-.741.553-1.116.847v-16.8c.375-.294.747-.576 1.116-.847v16.8z" fill="#6A9C4F"/><path d="M359.061 344.93v16.8c-.6.382-1.2.797-1.809 1.238a39.67 39.67 0 00-1.183.896v-16.8a37.611 37.611 0 012.992-2.134M471.965 406.157v16.8c0 8.47-3.513 16.979-10.45 23.819-10.321 10.187-21.712 19.563-32.792 29.156-1.304 1.129-2.008 2.013-2.008 3.123v-16.8c0-1.109.703-1.993 2.008-3.123 11.08-9.593 22.471-18.97 32.792-29.157 6.937-6.837 10.45-15.348 10.45-23.818z" fill="#6A9C4F"/><path d="M471.965 406.157v16.8c0 .626-.021 1.255-.058 1.884v-16.8c.038-.629.058-1.258.058-1.884m-.058 1.884v16.8c-.42 6.815-3.112 13.576-8.028 19.387v-16.8c4.918-5.811 7.608-12.572 8.028-19.387" fill="#6A9C4F"/><path d="M463.879 427.428v16.8a38.019 38.019 0 01-2.364 2.549c-10.321 10.187-21.712 19.563-32.792 29.156-.467.406-.856.779-1.166 1.143v-16.8c.31-.362.7-.735 1.166-1.143 11.08-9.593 22.471-18.97 32.792-29.157a38.498 38.498 0 002.364-2.548m-36.322 32.846v16.8c-.51.603-.796 1.177-.837 1.824v-16.801c.04-.645.327-1.22.837-1.823m-.837 1.824v16.801c-.002.053-.004.104-.004.156v-16.8c0-.051 0-.103.004-.157" fill="#6A9C4F"/><path d="M523.553 323.474v-16.8c0 .531.038 1.08.115 1.646.727 5.351 5.029 8.311 13.305 10.267 14.497 3.413 29.292 6.276 43.215 11.025 39.887 13.619 71.98 36.226 97.021 66.293 19.131 22.977 31.38 48.544 37.366 76.383 1.622 7.561 5.924 11.182 13.224 11.592.279.018.554.023.827.023 5.584 0 9.796-3.247 12.771-9.862v16.8c-2.976 6.614-7.188 9.861-12.771 9.861-.273 0-.548-.007-.827-.023-7.3-.41-11.602-4.031-13.224-11.592-5.986-27.838-18.235-53.406-37.366-76.383-25.039-30.065-57.134-52.674-97.021-66.293-13.923-4.749-28.718-7.613-43.215-11.025-8.274-1.956-12.578-4.916-13.305-10.266a12.2 12.2 0 01-.115-1.646z" fill="#86BB3F"/><path d="M741.395 474.042v16.8c-.951 2.119-2.031 3.893-3.243 5.325v-16.8c1.21-1.432 2.291-3.204 3.243-5.325m-3.245 5.325v16.8c-.935 1.104-1.949 2.007-3.042 2.707v-16.8c1.094-.701 2.109-1.602 3.042-2.707m-3.042 2.706v16.8c-.705.451-1.445.819-2.219 1.103v-16.8a11.389 11.389 0 002.219-1.103" fill="#86BB3F"/><path d="M732.891 483.176v16.8c-.788.29-1.607.492-2.468.608v-16.8a11.602 11.602 0 002.468-.608" fill="#86BB3F"/><path d="M730.425 483.785v16.8c-.585.08-1.185.119-1.8.119-.273 0-.548-.008-.827-.024-7.299-.41-11.601-4.031-13.223-11.593-5.987-27.838-18.236-53.406-37.367-76.383-25.038-30.065-57.133-52.673-97.021-66.293-13.922-4.749-28.718-7.613-43.214-11.025-8.274-1.956-12.577-4.916-13.306-10.266a12.404 12.404 0 01-.115-1.647v-16.8c0 .531.039 1.08.115 1.647.729 5.35 5.03 8.31 13.306 10.266 14.496 3.413 29.292 6.276 43.214 11.025 39.888 13.619 71.981 36.227 97.021 66.293 19.131 22.977 31.38 48.544 37.367 76.383 1.622 7.561 5.924 11.182 13.223 11.592a13.437 13.437 0 002.627-.094" fill="#86BB3F"/><path d="M539.775 295.55c10.342 2.331 20.807 4.338 31.017 7.036 33.265 8.817 62.891 23.404 88.978 43.281 27.72 21.126 49.188 46.284 64.009 75.625 7.741 15.311 13.135 31.241 16.713 47.653.19.873.595 1.711.907 2.565v2.331c-2.978 6.615-7.188 9.863-12.772 9.863-.272 0-.548-.008-.827-.024-7.299-.41-11.601-4.032-13.223-11.592-5.987-27.839-18.236-53.407-37.367-76.383-25.038-30.065-57.133-52.674-97.02-66.293-13.923-4.749-28.719-7.613-43.215-11.025-8.274-1.956-12.576-4.916-13.306-10.267-.756-5.585 2.157-9.366 9.838-12.772 2.085.002 4.182.002 6.268.002z" fill="#C0DB7E"/><path d="M657.894 475.648v16.8c0 5.499-3.665 9.962-9.786 11.331-1.058.235-2.108.35-3.141.35-5.747 0-10.895-3.533-12.826-9.114-2.963-8.504-4.91-17.425-9.152-25.421-18.083-34.158-48.729-54.997-91.314-62.556-7.602-1.344-11.773-5.395-11.765-11.244v-16.8c-.011 5.85 4.164 9.9 11.765 11.244 42.586 7.56 73.231 28.398 91.314 62.556 4.242 7.997 6.189 16.918 9.152 25.422 1.933 5.581 7.079 9.113 12.826 9.113 1.031 0 2.083-.113 3.141-.35 6.121-1.368 9.786-5.832 9.786-11.331z" fill="#86BB3F"/><path d="M657.894 475.648v16.8c0 .251-.007.5-.021.748v-16.801c.014-.246.021-.495.021-.747m-.023.748v16.801c-.149 2.438-1.034 4.643-2.545 6.433v-16.8c1.511-1.79 2.396-3.997 2.545-6.434m-2.545 6.432v16.8a11.59 11.59 0 01-2.629 2.285v-16.8a11.545 11.545 0 002.629-2.285m-2.629 2.284v16.8c-.792.507-1.667.938-2.617 1.29v-16.8a13.39 13.39 0 002.617-1.29m-2.617 1.291v16.8a15.571 15.571 0 01-3.189.796v-16.8a15.571 15.571 0 003.189-.796" fill="#86BB3F"/><path d="M646.893 487.199v16.8c-.647.087-1.291.131-1.926.131-5.747 0-10.895-3.533-12.826-9.114-2.963-8.504-4.91-17.425-9.152-25.421-18.083-34.158-48.729-54.997-91.314-62.556-7.602-1.344-11.773-5.395-11.765-11.244v-16.8c-.011 5.85 4.164 9.9 11.765 11.244 42.586 7.56 73.231 28.398 91.314 62.556 4.242 7.997 6.189 16.918 9.152 25.422 1.933 5.581 7.079 9.113 12.826 9.113.635 0 1.277-.041 1.926-.131" fill="#86BB3F"/><path d="M532.921 367.654c.88 0 1.781.072 2.701.22 40.29 6.521 72.497 24.234 96.557 52.937 13.084 15.606 21.278 33.067 25.403 52 1.472 6.759-2.328 12.571-9.476 14.169-1.058.235-2.108.35-3.141.35-5.747 0-10.895-3.533-12.826-9.113-2.963-8.504-4.911-17.425-9.152-25.422-18.083-34.158-48.729-54.996-91.314-62.556-7.602-1.344-11.773-5.395-11.765-11.244.008-6.45 5.723-11.341 13.013-11.341z" fill="#C0DB7E"/><path d="M612.837 568.174a26.412 26.412 0 00-.391-.009v-16.801l.391.01v16.8z" fill="#6A9C4F"/><path d="M687.14 616.801v16.8c.005-3.616-1.663-7.21-4.992-10.672-1.521-1.589-3.187-3.082-4.87-4.547-10.967-9.523-21.954-19.021-32.931-28.527-6.341-5.482-12.589-11.044-19.052-16.422a29.355 29.355 0 00-1.65-1.28c-3.646-2.615-7.403-3.94-11.196-3.988v-16.8c3.793.047 7.55 1.37 11.196 3.987.485.35.973.724 1.65 1.281 6.463 5.378 12.711 10.938 19.052 16.421 10.978 9.508 21.964 19.004 32.931 28.527 1.684 1.466 3.349 2.959 4.87 4.548 3.329 3.462 4.997 7.055 4.992 10.672M601.028 571.848V555.048c3.611-2.379 7.282-3.608 11.271-3.681.017 5.601.017 11.2.017 16.801-3.998.066-7.671 1.3-11.288 3.68z" fill="#6A9C4F"/><path d="M612.446 551.364v16.801c-.839.008-1.664.068-2.478.18v-16.8a19.715 19.715 0 012.478-.181" fill="#6A9C4F"/><path d="M609.97 551.545v16.8a19.41 19.41 0 00-4.107 1.028v-16.8a19.38 19.38 0 014.107-1.028m-4.109 1.028v16.8c-1.527.56-3.022 1.315-4.511 2.267v-16.8c1.489-.95 2.984-1.706 4.511-2.267" fill="#6A9C4F"/><path d="M601.352 554.84v16.8a30.1 30.1 0 00-1.051.704v-16.8c.35-.246.7-.48 1.051-.704M594.844 576.792c-10.124 8.755-20.186 17.568-30.392 26.243v-16.801c10.206-8.676 20.268-17.487 30.392-26.243v16.801z" fill="#6A9C4F"/><path d="M600.301 555.544v16.8c-2.335 1.752-3.714 2.939-5.086 4.125-10.251 8.861-20.433 17.783-30.764 26.566v-16.801c10.331-8.781 20.512-17.705 30.764-26.565 1.372-1.186 2.751-2.373 5.086-4.125" fill="#6A9C4F"/><path d="M563.747 603.604v-16.801c.195-.154.426-.343.705-.566v16.8l-.705.567z" fill="#6A9C4F"/><path d="M564.452 586.234v16.801c-1.154.935-1.491 1.19-1.835 1.437a25.19 25.19 0 01-1.149.776v-16.8c.386-.245.77-.503 1.149-.776.342-.245.681-.502 1.835-1.438" fill="#6A9C4F"/><path d="M369.87 341.215c5.415.028 10.225 2.149 15.388 6.356 17.954 15.501 34.717 30.063 51.48 44.625 1.259 1.091 2.5 2.226 3.648 3.413 3.568 3.683 5.418 7.32 5.421 10.906.003 3.588-1.842 7.125-5.663 10.614-10.359 9.47-21.205 18.558-32.014 27.654-6.492 5.453-9.519 9.703-9.52 14.815 0 3.277 1.244 6.91 3.613 11.442 11.542 22.068 28.638 40.759 47.386 58.427 21.219 19.989 44.725 37.643 71.72 51.607 6.007 3.107 12.285 5.839 18.536 8.591 3.367 1.481 6.642 2.248 9.806 2.296 4.995-.102 9.01-1.49 12.802-4.185.488-.35.826-.606 1.164-.874 11.146-9.448 21.326-18.371 31.579-27.231 1.37-1.188 2.752-2.374 4.204-3.481 4.771-3.378 8.713-4.775 12.619-4.822 4.2.047 7.957 1.371 11.604 3.987.486.35.974.725 1.454 1.118 6.66 5.54 12.909 11.103 19.25 16.583 10.977 9.507 21.963 19.005 32.93 28.529 1.685 1.465 3.349 2.958 4.871 4.547 3.33 3.462 4.998 7.054 4.994 10.672-.005 3.399-1.482 6.821-4.442 10.183-1.531 1.745-3.286 3.346-5.059 4.925-9.364 8.327-18.911 16.524-28.136 24.976-10.389 9.516-22.873 13.425-37.056 13.426a86.187 86.187 0 01-6.438-.253c-26.624-2.033-51.036-10.151-74.685-20.228-77.403-32.971-137.369-82.439-182.377-145.782-16.874-23.753-30.2-48.964-37.114-76.393-1.594-6.277-2.148-12.753-3.176-19.135-.081-14.312 5.345-25.703 16.854-35.172 9.838-8.108 19.232-16.621 28.879-24.904 2.073-1.69 2.469-1.988 2.859-2.275 4.365-3.186 8.498-4.837 12.619-4.957z" fill="#D8E8AD"/><path d="M702.145 592.031c15.01 13.801 15.24 34.682.727 48.868-13.444 13.129-27.559 25.864-42.558 37.641-13.304 10.438-29.439 14.311-46.715 14.311-3.067 0-6.17-.121-9.301-.35-38.838-2.846-73.342-16.49-106.759-32.534-41.035-19.712-77.564-44.574-109.526-74.314-39.061-36.343-71.387-76.56-91.678-123.384-6.884-15.88-12.308-32.116-13.084-49.242-.041-.883-.424-1.746-.646-2.62v-5.429c.666-4.592 1.038-9.238 2.076-13.76 2.592-11.287 8.407-21.256 17.709-29.495 12.308-10.913 24.191-22.28 37.447-32.264 9.983-7.516 20.383-11.296 30.693-11.296 10.552-.002 21.009 3.96 30.833 11.935 20.686 16.776 40.513 34.402 59.836 52.359 14.364 13.346 14.233 33.801.312 47.522-10.321 10.187-21.711 19.563-32.791 29.156-2.097 1.815-2.64 2.994-1.208 5.5 11.107 19.477 26.793 36.02 43.757 51.73 17.397 16.115 36.53 30.511 58.05 42.393 6.129 3.387 12.688 6.188 19.533 9.497 8.018-7.021 15.604-14.143 23.789-20.716 6.634-5.317 13.355-10.921 21.14-14.72 6.014-2.934 12.62-4.368 19.176-4.368 9.814 0 19.521 3.216 26.979 9.439 21.162 17.661 42.057 35.616 62.209 54.141zm-19.446 34.952c2.958-3.36 4.438-6.783 4.439-10.182.005-3.618-1.663-7.211-4.992-10.673-1.521-1.589-3.187-3.081-4.87-4.547-10.967-9.524-21.954-19.021-32.931-28.528-6.341-5.481-12.589-11.044-19.052-16.421a29.518 29.518 0 00-1.651-1.281c-3.646-2.615-7.402-3.939-11.195-3.987-4.313.047-8.255 1.444-12.146 4.18-2.335 1.752-3.715 2.939-5.086 4.125-10.251 8.86-20.433 17.783-30.765 26.565-1.154.936-1.491 1.191-1.835 1.438-3.938 2.797-7.951 4.188-12.161 4.286-3.948-.044-7.222-.811-10.59-2.294-6.251-2.75-12.529-5.48-18.536-8.591-26.996-13.966-50.501-31.617-71.72-51.606-18.75-17.668-35.846-36.358-47.389-58.426-2.369-4.534-3.613-8.166-3.613-11.443 0-5.112 3.028-9.363 9.521-14.815 10.806-9.099 21.652-18.185 32.014-27.656 3.821-3.489 5.664-7.026 5.662-10.612-.001-3.589-1.852-7.225-5.42-10.908-1.147-1.188-2.39-2.321-3.649-3.413-16.763-14.561-33.525-29.122-50.318-43.648-6.325-5.183-11.133-7.302-15.943-7.337-4.728.125-8.858 1.777-13.222 4.959-.391.285-.786.584-1.183.896-11.323 9.663-20.72 18.173-30.558 26.284-11.509 9.47-16.934 20.859-16.86 34.519 1.036 7.034 1.591 13.512 3.184 19.787 6.914 27.427 20.241 52.641 37.115 76.393C393.957 567.389 453.92 616.86 531.326 649.83c23.647 10.075 48.062 18.19 74.683 20.227.422.031.846.063 1.263.087 1.702.106 3.383.163 5.042.166 14.318 0 26.802-3.911 37.19-13.426 9.223-8.451 18.769-16.647 28.135-24.977 1.774-1.579 3.529-3.178 5.06-4.924" fill="#9DCB5A"/><path d="M713.581 616.746v16.8c0 8.578-3.572 17.177-10.711 24.153-13.444 13.129-27.56 25.864-42.558 37.642-13.304 10.438-29.439 14.311-46.715 14.311-3.067 0-6.17-.121-9.301-.351-38.838-2.845-73.342-16.489-106.759-32.533-41.035-19.713-77.564-44.574-109.526-74.315-39.061-36.342-71.387-76.56-91.678-123.383-6.884-15.881-12.308-32.117-13.084-49.242-.041-.883-.424-1.746-.646-2.619v-16.8c.222.875.604 1.736.646 2.62.776 17.125 6.199 33.365 13.084 49.242 20.292 46.825 52.618 87.042 91.678 123.384 31.962 29.74 68.493 54.604 109.526 74.314 33.417 16.044 67.921 29.688 106.759 32.534 3.129.229 6.231.35 9.301.35 17.274 0 33.411-3.872 46.715-14.311 15-11.775 29.112-24.512 42.558-37.641 7.14-6.979 10.711-15.577 10.711-24.155z" fill="#6A9C4F"/><path d="M713.581 616.746v16.8c0 .627-.021 1.253-.058 1.879l.001-16.8c.039-.626.057-1.254.057-1.879" fill="#6A9C4F"/><path d="M713.523 618.625l.001 16.8c-.417 6.854-3.118 13.643-8.099 19.53v-16.8c4.982-5.888 7.682-12.676 8.098-19.53" fill="#6A9C4F"/><path d="M705.427 638.155v16.8a39.651 39.651 0 01-2.557 2.744c-13.444 13.129-27.56 25.865-42.558 37.642a61.03 61.03 0 01-4.859 3.446v-16.8a61.562 61.562 0 004.859-3.447c15-11.775 29.112-24.512 42.558-37.641a38.76 38.76 0 002.557-2.744m-49.974 43.832v16.8a63.456 63.456 0 01-12.332 6.092v-16.8a63.57 63.57 0 0012.332-6.092m-12.332 6.091v16.8c-5.104 1.876-10.447 3.139-15.967 3.893v-16.8c5.52-.752 10.864-2.017 15.967-3.893m-15.967 3.894v16.801c-4.416.604-8.947.878-13.559.878-3.066 0-6.17-.12-9.301-.351-38.838-2.844-73.341-16.488-106.758-32.532-41.035-19.713-77.565-44.574-109.528-74.315-39.059-36.342-71.385-76.56-91.677-123.383-6.884-15.88-12.308-32.117-13.085-49.243-.04-.882-.422-1.745-.645-2.618v-16.8c.223.875.605 1.736.645 2.618.778 17.127 6.2 33.365 13.085 49.245 20.292 46.824 52.618 87.041 91.677 123.383 31.963 29.74 68.495 54.604 109.528 74.314 33.417 16.044 67.92 29.688 106.758 32.532 3.13.229 6.231.351 9.301.351 4.612-.002 9.143-.278 13.559-.88" fill="#6A9C4F"/></symbol><symbol viewBox="0 0 1024 1024" class="bicon" id="pen" xmlns="http://www.w3.org/2000/svg"><path d="M993.763 493.538v35c0 13.331-6.04 26.664-18.135 37.137-140.15 121.422-280.35 242.795-420.49 364.219-11.814 10.237-25.813 15.501-42.454 15.501v-35c16.643 0 30.64-5.264 42.454-15.501 140.141-121.424 280.336-242.802 420.49-364.217 12.095-10.475 18.135-23.803 18.135-37.139z" fill="#EBBF73"/><path d="M30.239 528.367v-35c0 14.707 6.701 29.313 19.039 40.019 138.448 120.064 277.049 239.996 415.56 360.02 13.002 11.26 28.74 16.466 47.852 16.994v35c-19.108-.528-34.85-5.734-47.852-16.994C326.325 808.382 187.725 688.45 49.277 568.386c-12.338-10.705-19.038-25.312-19.038-40.019z" fill="#EBBF73"/><path d="M510.786 76.601c16.263 0 32.546 5.362 44.946 16.097 139.95 121.188 279.901 242.376 419.819 363.586 24.241 20.995 24.295 53.413.079 74.397-140.15 121.42-280.35 242.796-420.489 364.217-11.815 10.239-25.813 15.502-42.452 15.502-19.109-.528-34.852-5.734-47.854-16.994-138.511-120.024-277.111-239.956-415.56-360.02-19.581-16.988-24.96-43.81-11.895-65.251 3.919-6.438 8.669-11.829 14.465-16.849C189.954 331.734 328.024 212.152 466.107 92.567c12.296-10.639 28.478-15.966 44.679-15.966z" fill="#F6D365"/><path d="M640.07 276.122V261.001h.309v15.12l-.309.001z" fill="#D9C5A3"/><path d="M640.379 261.003v15.12a9.908 9.908 0 00-1.057.032 7.881 7.881 0 00-.38.044v-15.121c.127-.018.255-.032.38-.043.261-.023.523-.036 1.057-.032M640.636 276.135a7.368 7.368 0 00-.257-.013v-15.12c.082.003.161.006.243.011.016 5.042.014 10.082.014 15.122z" fill="#D9C5A3"/><path d="M737.469 345.383v15.12c-.006-2.562-1.77-5.139-5.321-8.228a28866.459 28866.459 0 00-82.656-71.565c-3.622-3.067-6.372-4.497-9.112-4.586v-15.12c2.74.088 5.49 1.518 9.112 4.586a29025.43 29025.43 0 0182.656 71.565c3.551 3.087 5.315 5.666 5.321 8.228" fill="#D9C5A3"/><path d="M640.636 276.135c0-5.04.002-10.082-.014-15.122 2.661.164 5.354 1.598 8.869 4.575v15.119c-3.51-2.971-6.2-4.406-8.855-4.572z" fill="#D9C5A3"/><path d="M737.469 345.383v15.12c-.006-2.562-1.77-5.139-5.321-8.228a28866.459 28866.459 0 00-82.656-71.565c-3.622-3.067-6.372-4.497-9.112-4.586v-15.12c2.74.088 5.49 1.518 9.112 4.586a29025.43 29025.43 0 0182.656 71.565c3.551 3.087 5.315 5.666 5.321 8.228M639.322 276.155c-2.777.256-5.612 1.881-9.057 4.852V265.887c3.444-2.972 6.278-4.596 9.057-4.852.203-.02.41-.031.748-.033v15.121c-.338 0-.543.013-.748.032z" fill="#D9C5A3"/><path d="M640.379 261.003v15.12a9.908 9.908 0 00-1.057.032 7.881 7.881 0 00-.38.044v-15.121c.127-.018.255-.032.38-.043.261-.023.523-.036 1.057-.032m-1.437.076V276.2a9.804 9.804 0 00-2.07.526v-15.121a9.85 9.85 0 012.07-.526m-2.07.526v15.121c-.958.35-1.938.855-2.961 1.511v-15.121c1.027-.655 2.004-1.159 2.961-1.511m-2.961 1.511v15.121c-1.153.737-2.364 1.666-3.66 2.787-16.402 14.182-32.758 28.403-49.181 42.56-.657.567-1.389 1.074-2.13 1.547v-15.12c.741-.473 1.474-.98 2.13-1.547 16.42-14.157 32.778-28.378 49.181-42.56 1.296-1.122 2.507-2.05 3.66-2.788M649.898 281.061l-.407-.352V265.591l.407.351v15.119z" fill="#D9C5A3"/><path d="M737.469 345.383v15.12c-.006-2.562-1.77-5.139-5.321-8.228a28866.459 28866.459 0 00-82.656-71.565c-3.622-3.067-6.372-4.497-9.112-4.586v-15.12c2.74.088 5.49 1.518 9.112 4.586a29025.43 29025.43 0 0182.656 71.565c3.551 3.087 5.315 5.666 5.321 8.228M603.01 304.616V289.496c9.078-7.865 18.152-15.735 27.241-23.593.004-.006.011-.01.017-.016v15.119c-.006.006-.013.01-.017.016-9.089 7.859-18.163 15.728-27.241 23.594z" fill="#D9C5A3"/><path d="M633.911 263.116v15.121c-1.153.737-2.364 1.666-3.66 2.787-16.402 14.182-32.758 28.403-49.181 42.56-.657.567-1.389 1.074-2.13 1.547v-15.12c.741-.473 1.474-.98 2.13-1.547 16.42-14.157 32.778-28.378 49.181-42.56 1.296-1.122 2.507-2.05 3.66-2.788" fill="#D9C5A3"/><path d="M581.07 323.582c-1.523 1.313-3.428 2.295-4.987 3.324v-15.12c1.56-1.029 3.466-2.01 4.987-3.324 7.321-6.312 14.632-12.638 21.939-18.967v15.118a11242.32 11242.32 0 01-21.939 18.969z" fill="#D9C5A3"/><path d="M633.911 263.116v15.121c-1.153.737-2.364 1.666-3.66 2.787-16.402 14.182-32.758 28.403-49.181 42.56-.657.567-1.389 1.074-2.13 1.547v-15.12c.741-.473 1.474-.98 2.13-1.547 16.42-14.157 32.778-28.378 49.181-42.56 1.296-1.122 2.507-2.05 3.66-2.788" fill="#D9C5A3"/><path d="M578.94 310.01v15.12c-.86.55-1.739 1.058-2.543 1.571v-15.12c.804-.514 1.683-1.022 2.543-1.571m-2.543 1.57v15.12l-.317.204v-15.12c.106-.067.211-.136.317-.204M732.147 352.275a28899.898 28899.898 0 00-82.249-71.214V265.94a28899.898 28899.898 0 0182.249 71.214c3.552 3.088 5.315 5.666 5.321 8.229v15.12c-.005-2.563-1.769-5.14-5.321-8.228z" fill="#D9C5A3"/><path d="M737.469 345.383v15.12c-.006-2.562-1.77-5.139-5.321-8.228a28866.459 28866.459 0 00-82.656-71.565c-3.622-3.067-6.372-4.497-9.112-4.586v-15.12c2.74.088 5.49 1.518 9.112 4.586a29025.43 29025.43 0 0182.656 71.565c3.551 3.087 5.315 5.666 5.321 8.228" fill="#D9C5A3"/><path d="M737.469 345.381v15.12c.005 2.563-1.75 5.112-5.239 8.145-17.996 15.659-36.052 31.269-53.941 46.779v-15.121c17.89-15.509 35.945-31.121 53.941-46.779 3.489-3.031 5.244-5.58 5.239-8.144z" fill="#D9C5A3"/><path d="M737.469 345.381v15.12c0 .116-.003.232-.01.349v-15.12c.007-.116.01-.232.01-.349m-.01.349v15.12c-.098 1.607-.886 3.218-2.36 4.955v-15.12c1.474-1.736 2.262-3.346 2.36-4.955M735.099 350.686v15.12c-.772.907-1.728 1.848-2.871 2.841-17.996 15.659-36.051 31.269-53.94 46.779v-15.121c17.89-15.509 35.944-31.121 53.94-46.78 1.143-.991 2.1-1.932 2.871-2.839" fill="#D9C5A3"/><path d="M640.106 260.998c3.014.094 5.763 1.523 9.058 4.311a28382.534 28382.534 0 0182.983 71.847c3.552 3.088 5.316 5.664 5.321 8.228s-1.75 5.113-5.239 8.145c-17.996 15.659-36.052 31.271-53.941 46.78-33.928-29.383-67.64-58.581-102.204-88.521 1.559-1.029 3.465-2.012 4.987-3.324 16.422-14.159 32.777-28.378 49.181-42.56 3.451-2.981 6.291-4.61 9.071-4.868.262-.026.523-.038.783-.038z" fill="#F9EC9B"/><path d="M678.287 400.306v15.121c-33.929-29.384-67.641-58.579-102.204-88.521v-15.12c34.563 29.94 68.275 59.135 102.204 88.52z" fill="#D9C5A3"/><path d="M678.287 400.306v15.121c-33.929-29.384-67.641-58.579-102.204-88.521v-15.12c34.563 29.94 68.275 59.135 102.204 88.52M651.569 422.39v15.12a818967.155 818967.155 0 00-100.146-86.735v-15.12c33.078 28.643 66.753 57.808 100.146 86.735z" fill="#D9C5A3"/><path d="M651.569 422.39v15.12a818967.155 818967.155 0 00-100.146-86.735v-15.12c33.078 28.643 66.753 57.808 100.146 86.735M551.423 335.654v15.12c-79.86 69.155-160.066 138.599-239.637 207.5v-15.12c79.572-68.902 159.777-138.345 239.637-207.5z" fill="#D9C5A3"/><path d="M551.423 335.654v15.12c-79.86 69.155-160.066 138.599-239.637 207.5v-15.12c79.572-68.902 159.777-138.345 239.637-207.5" fill="#D9C5A3"/><path d="M411.942 629.897v15.119c-33.221-28.77-66.888-57.933-100.156-86.742v-15.12c33.268 28.809 66.935 57.974 100.156 86.743z" fill="#D9C5A3"/><path d="M411.942 629.897v15.119c-33.221-28.77-66.888-57.933-100.156-86.742v-15.12c33.268 28.809 66.935 57.974 100.156 86.743" fill="#D9C5A3"/><path d="M651.569 422.39v15.12a5061630.123 5061630.123 0 01-239.627 207.506v-15.12c79.735-69.042 159.867-138.432 239.627-207.506z" fill="#D9C5A3"/><path d="M651.569 422.39v15.12a5061630.123 5061630.123 0 01-239.627 207.506v-15.12c79.735-69.042 159.867-138.432 239.627-207.506M370.183 656.087a732541.823 732541.823 0 01-71.459-61.909v-15.119c23.614 20.457 47.571 41.215 71.459 61.907v15.121z" fill="#D9C5A3"/><path d="M370.183 640.966v15.121c-23.888-20.69-47.845-41.449-71.459-61.909v-15.119c23.614 20.458 47.571 41.216 71.459 61.907M298.724 579.059v15.119c-2.297 21.945-4.673 44.751-7.115 68.125v-15.121c2.442-23.372 4.818-46.18 7.115-68.123z" fill="#D9C5A3"/><path d="M298.724 579.059v15.119c-2.297 21.945-4.673 44.751-7.115 68.125v-15.121c2.442-23.372 4.818-46.18 7.115-68.123" fill="#D9C5A3"/><path d="M298.724 579.059l71.46 61.907c-25.04 1.981-51.393 4.063-78.574 6.217 2.443-23.373 4.82-46.183 7.114-68.124z" fill="#D9C5A3"/><path d="M370.185 640.966v15.121c-25.04 1.981-51.393 4.063-78.574 6.216v-15.12c27.181-2.154 53.534-4.236 78.574-6.217z" fill="#D9C5A3"/><path d="M370.185 640.966v15.121c-25.04 1.981-51.393 4.063-78.574 6.216v-15.12c27.181-2.154 53.534-4.236 78.574-6.217" fill="#D9C5A3"/><path d="M758.176 316.366c8.826 7.637 12.898 16.499 13.344 27.617.544 13.709-5.369 23.908-16.175 33.242-109.363 94.529-218.608 189.178-327.782 283.873-5.052 4.393-10.56 6.624-17.644 7.157-40.127 3.01-80.224 6.278-120.341 9.374-1.458.11-2.924.146-4.393.146-2.561 0-5.132-.107-7.692-.107-1.68.188-3.363.189-5.041.189l-2.517-.001c-8.745 0-15.114-5.059-14.667-12.728.725-12.326 2.13-24.631 3.392-36.935 2.813-27.354 5.877-54.696 8.473-82.076.655-6.884 3.239-12.289 8.99-17.262 109.736-94.83 219.442-189.682 328.824-284.824 10.666-9.276 23.784-13.009 35.749-13.009 8.876 0 17.115 2.052 23.246 5.419 3.513 1.925 6.803 4.289 9.755 6.828 28.213 24.324 56.327 48.726 84.479 73.097zM411.942 629.898A5617654.36 5617654.36 0 00651.57 422.389a916232.898 916232.898 0 00-100.146-86.736c-79.86 69.155-160.066 138.599-239.636 207.5 33.266 28.811 66.93 57.976 100.154 86.745m320.287-276.37c3.486-3.032 5.244-5.582 5.239-8.144-.006-2.562-1.77-5.141-5.321-8.229a29186.163 29186.163 0 00-82.656-71.565c-3.622-3.067-6.372-4.497-9.112-4.586a9.643 9.643 0 00-1.057.032c-2.782.256-5.622 1.885-9.071 4.868-16.402 14.182-32.758 28.403-49.181 42.56-1.523 1.313-3.428 2.294-4.987 3.324 34.563 29.94 68.275 59.136 102.205 88.521 17.889-15.512 35.942-31.122 53.941-46.781m-440.62 293.655c27.183-2.152 53.535-4.235 78.574-6.217-23.888-20.69-47.845-41.449-71.459-61.907-2.297 21.943-4.673 44.751-7.115 68.124" fill="#EFD5AB"/><path d="M551.424 335.653c33.077 28.644 66.752 57.809 100.146 86.737a5714710.178 5714710.178 0 01-239.627 207.508c-33.221-28.77-66.888-57.935-100.156-86.743 79.572-68.904 159.776-138.349 239.637-207.502z" fill="#F5DB84"/><path d="M771.555 345.709v15.12c0 12.848-5.863 22.578-16.209 31.516-109.362 94.529-218.607 189.179-327.783 283.875-5.05 4.395-10.558 6.623-17.642 7.156-40.127 3.011-80.224 6.279-120.341 9.373a57.382 57.382 0 01-4.393.146c-2.561 0-5.133-.108-7.692-.108v-15.119c2.559 0 5.131.107 7.692.107 1.468 0 2.934-.035 4.393-.146 40.117-3.096 80.213-6.364 120.341-9.374 7.084-.533 12.592-2.766 17.642-7.157 109.174-94.695 218.421-189.344 327.783-283.873 10.345-8.94 16.209-18.67 16.209-31.516z" fill="#D9C5A3"/><path d="M771.555 345.709v15.12c0 .827-.024 1.64-.073 2.44v-15.12c.048-.801.073-1.616.073-2.44m-.074 2.438v15.12c-.515 8.566-3.762 15.729-9.287 22.245v-15.121c5.526-6.513 8.773-13.677 9.287-22.244m-9.287 22.245v15.121c-1.994 2.349-4.282 4.613-6.85 6.831-109.363 94.528-218.608 189.179-327.782 283.875a31.25 31.25 0 01-3.642 2.738v-15.121a31.222 31.222 0 003.642-2.738c109.173-94.695 218.419-189.345 327.782-283.874 2.568-2.218 4.856-4.482 6.85-6.832" fill="#D9C5A3"/><path d="M423.922 663.835v15.121a27.016 27.016 0 01-5.256 2.611v-15.121a26.987 26.987 0 005.256-2.611m-5.256 2.611v15.121c-2.001.732-4.125 1.251-6.417 1.563v-15.119c2.291-.314 4.416-.83 6.417-1.565m-6.419 1.565v15.119c-.757.103-1.532.185-2.328.243-40.127 3.011-80.224 6.28-120.341 9.374a57.365 57.365 0 01-4.393.146c-2.561 0-5.132-.108-7.692-.108v-15.12c2.56 0 5.131.108 7.692.108a57.4 57.4 0 004.393-.147c40.118-3.094 80.213-6.363 120.341-9.372a40.648 40.648 0 002.328-.243" fill="#D9C5A3"/><path d="M255.245 681V665.879c0 7.244 6.237 11.975 14.691 11.975.838.002 1.678.002 2.516.002 1.679 0 3.362-.002 5.042-.19v15.12c-1.68.191-3.363.192-5.042.192l-2.516-.001c-8.454 0-14.691-4.731-14.691-11.977z" fill="#D9C5A3"/><path d="M277.495 677.667v15.119c-1.68.191-3.363.193-5.042.193-.838 0-1.677 0-2.516-.002-8.455 0-14.691-4.731-14.691-11.978v-15.12c0 7.245 6.237 11.976 14.691 11.976l2.516.001c1.678 0 3.361-.001 5.042-.189" fill="#D9C5A3"/></symbol></svg>